<svg width="300" height="100" viewBox="0 0 300 100" fill="none" xmlns="http://www.w3.org/2000/svg">
<g clip-path="url(#clip0)">
<rect width="300" height="100" fill="#B5E2A0"/>
<rect x="259" width="83" height="100" fill="#6FCF97"/>
<path d="M234 0L333 -57.1577V57.1577L234 0Z" fill="#6FCF97"/>
<path d="M198 50L297 -7.15768V107.158L198 50Z" fill="#6FCF97"/>
<path d="M168 100L267 42.8423V157.158L168 100Z" fill="#6FCF97"/>
<path d="M20.2617 31.4648C20.2617 30.8633 20.0469 30.3945 19.6172 30.0586C19.1953 29.7227 18.4492 29.375 17.3789 29.0156C16.3086 28.6562 15.4336 28.3086 14.7539 27.9727C12.543 26.8867 11.4375 25.3945 11.4375 23.4961C11.4375 22.5508 11.7109 21.7188 12.2578 21C12.8125 20.2734 13.5938 19.7109 14.6016 19.3125C15.6094 18.9062 16.7422 18.7031 18 18.7031C19.2266 18.7031 20.3242 18.9219 21.293 19.3594C22.2695 19.7969 23.0273 20.4219 23.5664 21.2344C24.1055 22.0391 24.375 22.9609 24.375 24H20.2734C20.2734 23.3047 20.0586 22.7656 19.6289 22.3828C19.207 22 18.6328 21.8086 17.9062 21.8086C17.1719 21.8086 16.5898 21.9727 16.1602 22.3008C15.7383 22.6211 15.5273 23.0312 15.5273 23.5312C15.5273 23.9688 15.7617 24.3672 16.2305 24.7266C16.6992 25.0781 17.5234 25.4453 18.7031 25.8281C19.8828 26.2031 20.8516 26.6094 21.6094 27.0469C23.4531 28.1094 24.375 29.5742 24.375 31.4414C24.375 32.9336 23.8125 34.1055 22.6875 34.957C21.5625 35.8086 20.0195 36.2344 18.0586 36.2344C16.6758 36.2344 15.4219 35.9883 14.2969 35.4961C13.1797 34.9961 12.3359 34.3164 11.7656 33.457C11.2031 32.5898 10.9219 31.5938 10.9219 30.4688H15.0469C15.0469 31.3828 15.2812 32.0586 15.75 32.4961C16.2266 32.9258 16.9961 33.1406 18.0586 33.1406C18.7383 33.1406 19.2734 32.9961 19.6641 32.707C20.0625 32.4102 20.2617 31.9961 20.2617 31.4648ZM33.4453 36C33.3047 35.7422 33.1797 35.3633 33.0703 34.8633C32.3438 35.7773 31.3281 36.2344 30.0234 36.2344C28.8281 36.2344 27.8125 35.875 26.9766 35.1562C26.1406 34.4297 25.7227 33.5195 25.7227 32.4258C25.7227 31.0508 26.2305 30.0117 27.2461 29.3086C28.2617 28.6055 29.7383 28.2539 31.6758 28.2539H32.8945V27.5859C32.8945 26.4219 32.3906 25.8398 31.3828 25.8398C30.4453 25.8398 29.9766 26.3008 29.9766 27.2227H26.0273C26.0273 25.9961 26.5469 25 27.5859 24.2344C28.6328 23.4688 29.9648 23.0859 31.582 23.0859C33.1992 23.0859 34.4766 23.4805 35.4141 24.2695C36.3516 25.0586 36.832 26.1406 36.8555 27.5156V33.1289C36.8711 34.293 37.0508 35.1836 37.3945 35.8008V36H33.4453ZM30.9727 33.4219C31.4648 33.4219 31.8711 33.3164 32.1914 33.1055C32.5195 32.8945 32.7539 32.6562 32.8945 32.3906V30.3633H31.7461C30.3711 30.3633 29.6836 30.9805 29.6836 32.2148C29.6836 32.5742 29.8047 32.8672 30.0469 33.0938C30.2891 33.3125 30.5977 33.4219 30.9727 33.4219ZM42.7852 23.3203L42.9141 24.8086C43.8125 23.6602 45.0195 23.0859 46.5352 23.0859C48.1367 23.0859 49.2188 23.7227 49.7812 24.9961C50.6406 23.7227 51.8828 23.0859 53.5078 23.0859C56.0781 23.0859 57.3984 24.6406 57.4688 27.75V36H53.5078V27.9961C53.5078 27.3477 53.3984 26.875 53.1797 26.5781C52.9609 26.2812 52.5625 26.1328 51.9844 26.1328C51.2031 26.1328 50.6211 26.4805 50.2383 27.1758L50.25 27.3398V36H46.2891V28.0195C46.2891 27.3555 46.1836 26.875 45.9727 26.5781C45.7617 26.2812 45.3594 26.1328 44.7656 26.1328C44.0078 26.1328 43.4297 26.4805 43.0312 27.1758V36H39.082V23.3203H42.7852ZM71.4961 29.7539C71.4961 31.7227 71.0508 33.2969 70.1602 34.4766C69.2773 35.6484 68.082 36.2344 66.5742 36.2344C65.4102 36.2344 64.4531 35.8086 63.7031 34.957V40.875H59.7539V23.3203H63.4453L63.5625 24.4922C64.3203 23.5547 65.3164 23.0859 66.5508 23.0859C68.1133 23.0859 69.3281 23.6641 70.1953 24.8203C71.0625 25.9688 71.4961 27.5508 71.4961 29.5664V29.7539ZM67.5469 29.5078C67.5469 27.2578 66.8906 26.1328 65.5781 26.1328C64.6406 26.1328 64.0156 26.4688 63.7031 27.1406V32.1328C64.0469 32.8359 64.6797 33.1875 65.6016 33.1875C66.8594 33.1875 67.5078 32.1016 67.5469 29.9297V29.5078ZM77.4141 36H73.4531V18H77.4141V36ZM85.9922 36.2344C84.0469 36.2344 82.4727 35.6562 81.2695 34.5C80.0664 33.3359 79.4648 31.8242 79.4648 29.9648V29.6367C79.4648 28.3398 79.7031 27.1953 80.1797 26.2031C80.6641 25.2109 81.3672 24.4453 82.2891 23.9062C83.2109 23.3594 84.3047 23.0859 85.5703 23.0859C87.3516 23.0859 88.7578 23.6406 89.7891 24.75C90.8203 25.8516 91.3359 27.3906 91.3359 29.3672V30.9023H83.4844C83.625 31.6133 83.9336 32.1719 84.4102 32.5781C84.8867 32.9844 85.5039 33.1875 86.2617 33.1875C87.5117 33.1875 88.4883 32.75 89.1914 31.875L90.9961 34.0078C90.5039 34.6875 89.8047 35.2305 88.8984 35.6367C88 36.0352 87.0312 36.2344 85.9922 36.2344ZM85.5469 26.1328C84.3906 26.1328 83.7031 26.8984 83.4844 28.4297H87.4688V28.125C87.4844 27.4922 87.3242 27.0039 86.9883 26.6602C86.6523 26.3086 86.1719 26.1328 85.5469 26.1328Z" fill="#4F4F4F"/>
<path fill-rule="evenodd" clip-rule="evenodd" d="M245.25 42.25H278.583C280.896 42.25 282.75 44.1042 282.75 46.4167V52.6667C282.75 54.9583 280.896 56.8333 278.583 56.8333H274.417V63.0833C274.417 67.6875 270.688 71.4167 266.083 71.4167H253.583C248.979 71.4167 245.25 67.6875 245.25 63.0833V42.25ZM278.583 75.5833H245.25V79.75H278.583V75.5833ZM270.25 63.0833C270.25 65.375 268.375 67.25 266.083 67.25H253.583C251.292 67.25 249.417 65.375 249.417 63.0833V46.4167H270.25V63.0833ZM274.417 52.6667H278.583V46.4167H274.417V52.6667Z" fill="black" fill-opacity="0.54"/>
<path d="M36.2188 73.5312C36.2188 77.6875 35.3594 80.8828 33.6406 83.1172C31.9219 85.3516 29.5 86.4688 26.375 86.4688C23.7969 86.4688 21.7188 85.4453 20.1406 83.3984L19.8125 86H12.7344V50H20.6328V62.6797C22.1016 61.0078 24 60.1719 26.3281 60.1719C29.4844 60.1719 31.9219 61.3047 33.6406 63.5703C35.3594 65.8359 36.2188 69.0234 36.2188 73.1328V73.5312ZM28.2969 73.0391C28.2969 70.6016 27.9688 68.8672 27.3125 67.8359C26.6719 66.7891 25.6797 66.2656 24.3359 66.2656C22.5547 66.2656 21.3203 66.9453 20.6328 68.3047V78.3828C21.3047 79.7266 22.5547 80.3984 24.3828 80.3984C26.2422 80.3984 27.4219 79.4922 27.9219 77.6797C28.1719 76.7891 28.2969 75.2422 28.2969 73.0391ZM54.0078 86C53.7266 85.4844 53.4766 84.7266 53.2578 83.7266C51.8047 85.5547 49.7734 86.4688 47.1641 86.4688C44.7734 86.4688 42.7422 85.75 41.0703 84.3125C39.3984 82.8594 38.5625 81.0391 38.5625 78.8516C38.5625 76.1016 39.5781 74.0234 41.6094 72.6172C43.6406 71.2109 46.5938 70.5078 50.4688 70.5078H52.9062V69.1719C52.9062 66.8438 51.8984 65.6797 49.8828 65.6797C48.0078 65.6797 47.0703 66.6016 47.0703 68.4453H39.1719C39.1719 65.9922 40.2109 64 42.2891 62.4688C44.3828 60.9375 47.0469 60.1719 50.2812 60.1719C53.5156 60.1719 56.0703 60.9609 57.9453 62.5391C59.8203 64.1172 60.7812 66.2812 60.8281 69.0312V80.2578C60.8594 82.5859 61.2188 84.3672 61.9062 85.6016V86H54.0078ZM49.0625 80.8438C50.0469 80.8438 50.8594 80.6328 51.5 80.2109C52.1562 79.7891 52.625 79.3125 52.9062 78.7812V74.7266H50.6094C47.8594 74.7266 46.4844 75.9609 46.4844 78.4297C46.4844 79.1484 46.7266 79.7344 47.2109 80.1875C47.6953 80.625 48.3125 80.8438 49.0625 80.8438ZM72.4766 60.6406L72.7344 63.6172C74.4844 61.3203 76.8984 60.1719 79.9766 60.1719C82.6172 60.1719 84.5859 60.9609 85.8828 62.5391C87.1953 64.1172 87.875 66.4922 87.9219 69.6641V86H80V69.9922C80 68.7109 79.7422 67.7734 79.2266 67.1797C78.7109 66.5703 77.7734 66.2656 76.4141 66.2656C74.8672 66.2656 73.7188 66.875 72.9688 68.0938V86H65.0703V60.6406H72.4766ZM99.5703 60.6406L99.8281 63.6172C101.578 61.3203 103.992 60.1719 107.07 60.1719C109.711 60.1719 111.68 60.9609 112.977 62.5391C114.289 64.1172 114.969 66.4922 115.016 69.6641V86H107.094V69.9922C107.094 68.7109 106.836 67.7734 106.32 67.1797C105.805 66.5703 104.867 66.2656 103.508 66.2656C101.961 66.2656 100.812 66.875 100.062 68.0938V86H92.1641V60.6406H99.5703ZM131.68 86.4688C127.789 86.4688 124.641 85.3125 122.234 83C119.828 80.6719 118.625 77.6484 118.625 73.9297V73.2734C118.625 70.6797 119.102 68.3906 120.055 66.4062C121.023 64.4219 122.43 62.8906 124.273 61.8125C126.117 60.7188 128.305 60.1719 130.836 60.1719C134.398 60.1719 137.211 61.2812 139.273 63.5C141.336 65.7031 142.367 68.7812 142.367 72.7344V75.8047H126.664C126.945 77.2266 127.562 78.3438 128.516 79.1562C129.469 79.9688 130.703 80.375 132.219 80.375C134.719 80.375 136.672 79.5 138.078 77.75L141.688 82.0156C140.703 83.375 139.305 84.4609 137.492 85.2734C135.695 86.0703 133.758 86.4688 131.68 86.4688ZM130.789 66.2656C128.477 66.2656 127.102 67.7969 126.664 70.8594H134.633V70.25C134.664 68.9844 134.344 68.0078 133.672 67.3203C133 66.6172 132.039 66.2656 130.789 66.2656ZM160.906 67.7891L158.305 67.6016C155.82 67.6016 154.227 68.3828 153.523 69.9453V86H145.625V60.6406H153.031L153.289 63.8984C154.617 61.4141 156.469 60.1719 158.844 60.1719C159.688 60.1719 160.422 60.2656 161.047 60.4531L160.906 67.7891Z" fill="#4F4F4F"/>
</g>
<defs>
<clipPath id="clip0">
<rect width="300" height="100" fill="white"/>
</clipPath>
</defs>
</svg>
