<svg width="21" height="21" viewBox="0 0 21 21" fill="none" xmlns="http://www.w3.org/2000/svg">
<path d="M3.69804 14.1925C2.19301 14.1925 0.968567 12.8305 0.968567 11.1563C0.968567 9.48219 2.19301 8.12016 3.69804 8.12016C5.20308 8.12016 6.42752 9.48219 6.42752 11.1563C6.42752 12.8305 5.20308 14.1925 3.69804 14.1925V14.1925ZM3.69804 9.65735C2.95499 9.65735 2.35048 10.3298 2.35048 11.1563C2.35048 11.9829 2.95499 12.6553 3.69804 12.6553C4.4411 12.6553 5.04561 11.9829 5.04561 11.1563C5.04561 10.3298 4.4411 9.65735 3.69804 9.65735V9.65735ZM11.5753 6.93719C10.0702 6.93719 8.84579 5.57516 8.84579 3.901C8.84579 2.22684 10.0702 0.864807 11.5753 0.864807C13.0803 0.864807 14.3047 2.22684 14.3047 3.901C14.3047 5.57516 13.0803 6.93719 11.5753 6.93719V6.93719ZM11.5753 2.402C10.8322 2.402 10.2277 3.07445 10.2277 3.901C10.2277 4.72755 10.8322 5.39999 11.5753 5.39999C12.3183 5.39999 12.9228 4.72755 12.9228 3.901C12.9228 3.07445 12.3183 2.402 11.5753 2.402V2.402ZM11.5695 14.1934C11.0199 14.1934 10.4837 14.0084 10.0221 13.6531C9.42263 13.1916 9.02051 12.4981 8.88992 11.7002C8.75933 10.9023 8.91588 10.0956 9.33073 9.4287C9.74558 8.76178 10.3691 8.31451 11.0864 8.16925C11.8037 8.02403 12.5288 8.19812 13.1284 8.65961C13.7279 9.12108 14.13 9.81463 14.2606 10.6125C14.3912 11.4104 14.2346 12.2171 13.8197 12.884C13.4049 13.5509 12.7814 13.9982 12.0641 14.1434C11.8991 14.1768 11.7337 14.1934 11.5695 14.1934ZM11.5781 9.65694C11.497 9.65694 11.4154 9.66509 11.3339 9.68159C10.9798 9.7533 10.6719 9.97412 10.4671 10.3034C10.2623 10.6327 10.185 11.0309 10.2495 11.4248C10.314 11.8188 10.5125 12.1612 10.8085 12.389C11.1045 12.6168 11.4625 12.7029 11.8166 12.6311C12.1707 12.5594 12.4786 12.3386 12.6834 12.0093C12.8882 11.68 12.9655 11.2818 12.901 10.8879C12.8365 10.4939 12.638 10.1515 12.342 9.9237C12.1142 9.74828 11.8495 9.65694 11.5781 9.65694ZM5.41311 11.5376V10.7751C5.41311 10.606 5.53748 10.4677 5.68949 10.4677H9.2602C9.41221 10.4677 9.53659 10.606 9.53659 10.7751V11.5376C9.53659 11.7067 9.41221 11.845 9.2602 11.845H5.68949C5.53748 11.845 5.41311 11.7067 5.41311 11.5376V11.5376ZM11.2698 6.16872L11.9549 6.19119C12.1069 6.19618 12.2275 6.33853 12.223 6.50757L12.1652 8.69C12.1607 8.85901 12.0327 8.99324 11.8808 8.98824L11.1956 8.96577C11.0437 8.96077 10.923 8.81843 10.9275 8.64939L10.9853 6.46696C10.9898 6.29794 11.1178 6.16372 11.2698 6.16872ZM16.6203 8.77237L16.8321 9.49754C16.8791 9.65835 16.7992 9.83267 16.6547 9.88494L13.8771 10.889C13.7325 10.9412 13.5758 10.8524 13.5288 10.6916L13.317 9.96641C13.27 9.80559 13.3498 9.63127 13.4944 9.57901L16.272 8.57499C16.4165 8.52273 16.5733 8.61155 16.6203 8.77237ZM18.2391 11.2363C16.7341 11.2363 15.5096 9.87423 15.5096 8.20007C15.5096 6.52591 16.7341 5.16388 18.2391 5.16388C19.7441 5.16388 20.9686 6.52591 20.9686 8.20007C20.9686 9.87423 19.7441 11.2363 18.2391 11.2363ZM18.2391 6.70107C17.496 6.70107 16.8915 7.37352 16.8915 8.20007C16.8915 9.02662 17.496 9.69906 18.2391 9.69906C18.9821 9.69906 19.5867 9.02662 19.5867 8.20007C19.5867 7.37352 18.9821 6.70107 18.2391 6.70107ZM14.9213 15.899L14.355 16.3288C14.2295 16.4241 14.0566 16.3878 13.971 16.2481L12.2341 13.4166C12.1485 13.2769 12.1811 13.0847 12.3067 12.9894L12.8729 12.5596C12.9985 12.4643 13.1713 12.5006 13.257 12.6403L14.9938 15.4718C15.0795 15.6115 15.0468 15.8037 14.9213 15.899ZM15.8293 20.8648C14.3243 20.8648 13.0998 19.5028 13.0998 17.8286C13.0998 16.1545 14.3243 14.7924 15.8293 14.7924C17.3344 14.7924 18.5588 16.1545 18.5588 17.8286C18.5588 19.5028 17.3343 20.8648 15.8293 20.8648ZM15.8293 16.3296C15.0863 16.3296 14.4817 17.0021 14.4817 17.8286C14.4817 18.6552 15.0863 19.3276 15.8293 19.3276C16.5724 19.3276 17.1769 18.6552 17.1769 17.8286C17.1769 17.0021 16.5723 16.3296 15.8293 16.3296Z" fill="#2D9CDB"/>
</svg>
