<?xml version="1.0" ?><!DOCTYPE svg  PUBLIC '-//W3C//DTD SVG 1.1//EN'  'http://www.w3.org/Graphics/SVG/1.1/DTD/svg11.dtd'><svg enable-background="new 0 0 100 100" height="100px" id="Layer_1" version="1.1" viewBox="0 0 100 100" width="100px" xml:space="preserve" xmlns="http://www.w3.org/2000/svg" xmlns:xlink="http://www.w3.org/1999/xlink"><path d="M50,3.84C24.506,3.84,3.84,24.506,3.84,50S24.506,96.16,50,96.16S96.16,75.494,96.16,50S75.494,3.84,50,3.84  z M65.137,52.572c-1.854-0.031-3.549,0.023-5.704-0.07c-0.35-0.016-5.963,0.068-5.946,0.17c0.408,2.496-0.178,5.148-0.143,7.672  c0.021,1.471,0.453,14.779,0.254,19.688l-11.123,0.102c-0.046-4.18,0.158-8.479-0.023-13.992  c-0.037-1.133-0.074-13.061-0.206-13.689c0,0-4.916,0.035-7.214,0.049c0,0-0.031-4.402-0.031-5.891c0-1.463,0-2.924,0-4.387  c0,0,5.738-0.318,7.385-0.461c0,0,0.168-5.584,0.396-7.393c0.263-2.066,0.289-4.154,1.502-5.982  c2.223-3.346,4.417-6.295,8.504-7.184c1.546-0.338,11.741-2.342,12.119-0.693l-0.232,9.928c-2.772,0-6.094-0.281-8.923,1.82  c-1.575,1.172-2.01,2.148-2.169,4.076c-0.095,1.121-0.117,5.658-0.117,5.658c1.494,0.213,3.705,0.119,5.311,0  c1.814-0.135,6.471,0.346,6.471,0.346C65.246,45.342,65.126,52.275,65.137,52.572z" fill="#3A5897"/></svg>